<svg version="1.1" xmlns="http://www.w3.org/2000/svg" style="display: block;" viewBox="0 0 2048 2048" width="100" height="100">
<path transform="translate(0,0)" d="M 0 0 L 2048 0 L 2048 2048 L 0 2048 L 0 0 z"/>
<path transform="translate(0,0)" fill="rgb(35,34,34)" d="M 1162.68 86.5784 A 326.577 326.577 0 0 1 1201.45 86.2541 A 425.798 425.798 0 0 1 1494.93 225.921 C 1566.37 305.1 1598.94 406.397 1593.13 512.298 C 1586.46 633.933 1523.06 732.579 1434.49 811.948 A 387.641 387.641 0 0 1 1632.3 832.01 A 386.86 386.86 0 0 1 1848.86 1031.48 C 1890.87 1123.75 1896.58 1239.53 1860.25 1334.59 C 1826.64 1422.54 1754.1 1498.72 1667.92 1536.75 C 1588.68 1571.71 1509.05 1571.47 1428.94 1540.31 C 1295.63 1488.47 1186.25 1369.01 1119.96 1244.92 A 1144.16 1144.16 0 0 1 1074.41 1149.25 C 1066.44 1130.44 1059.38 1111.26 1051.17 1092.55 C 1042.89 1117.59 1037.87 1143.68 1032.32 1169.42 C 1008.04 1281.99 995.591 1398.84 1001.86 1514.04 C 1009.42 1652.81 1055.36 1793.01 1145.28 1900.61 C 1165.38 1924.66 1189.51 1947.46 1212.84 1968.37 C 1177.79 1961.08 1142.85 1951.18 1108.36 1941.57 C 1040.2 1922.57 972.215 1901.65 903.59 1884.53 L 492.704 1767.35 L 363.813 1730.45 C 337.414 1723.03 310.025 1716.72 284.283 1707.29 C 340.923 1693.42 393.843 1677.43 447.421 1654.2 C 628.289 1575.81 754.446 1417.43 850.153 1250.59 C 872.074 1212.37 891.715 1173.75 910.531 1133.94 C 920.111 1113.67 929.864 1093.53 938.121 1072.67 C 916.099 1087.53 890.97 1098.81 867.034 1110.19 C 782.173 1150.54 695.038 1181.9 602.117 1197.47 C 499.454 1214.68 388.822 1208.36 301.798 1145.75 C 227.277 1092.13 180.12 1008.16 165.49 918.389 C 149.315 819.128 172.088 710.241 231.388 628.352 A 376.564 376.564 0 0 1 477.506 475.39 C 569.122 461.072 663.329 485.517 740.059 536.263 C 761.417 550.389 779.961 567.815 800.571 582.893 A 436.192 436.192 0 0 1 788.633 503.281 A 385.073 385.073 0 0 1 883.811 222.471 C 956.134 140.461 1053.82 93.4524 1162.68 86.5784 z"/>
<path transform="translate(0,0)" fill="rgb(254,254,254)" d="M 1169.54 517.75 C 1170.45 527.165 1163.26 560.761 1161.42 572.607 A 823.896 823.896 0 0 0 1154.57 628.08 C 1144.54 732.813 1141.13 839.999 1154.65 944.587 C 1178.48 1128.91 1238.32 1282.84 1378.85 1409.69 C 1392.47 1421.98 1406.41 1434.16 1421.22 1445.02 C 1435.4 1455.41 1450.39 1464.68 1464.33 1475.42 C 1413.24 1452.38 1367.37 1421.42 1325.01 1384.91 C 1246.42 1317.15 1188.69 1238.96 1141.97 1146.52 C 1113.69 1090.57 1090.71 1032 1081.13 969.709 C 1076.24 937.891 1074.35 905.404 1074.15 873.241 C 1074.12 867.352 1076.11 844.112 1074.14 840.899 L 1072.17 843.384 C 1006.64 938.233 934.832 1003.21 831.293 1055.14 C 722.777 1109.57 597.212 1139.93 475.513 1126.8 C 453.939 1124.47 431.391 1122 410.734 1115.17 C 420.48 1116.63 431.393 1116.59 441.273 1117.05 C 506.183 1120.09 569.083 1110.28 631.224 1091.94 C 840.858 1030.08 1003.35 838.885 1105.7 653.888 C 1120.64 626.869 1135.02 599.088 1147.37 570.787 C 1154.94 553.441 1160.52 534.304 1169.54 517.75 z"/>
<path transform="translate(0,0)" fill="rgb(254,254,254)" d="M 1057.63 894.782 C 1057.58 903.983 1045.54 938.095 1042.38 949.151 C 1028.91 996.262 1014.99 1043.71 1003.11 1091.23 C 989.263 1146.59 980.726 1203.64 972.67 1260.12 A 1303.64 1303.64 0 0 0 960.697 1412.42 C 955.572 1592.25 987.07 1753.96 1096.74 1900.13 C 1074.92 1893.1 1052.4 1888.19 1030.25 1882.3 C 1021.21 1879.9 1011.4 1877.9 1002.79 1874.21 C 993.724 1870.34 985.526 1860.58 977.672 1854.44 C 966.745 1845.89 954.831 1837.91 942.614 1831.29 C 872.739 1793.42 786.502 1766.35 708.956 1748.64 C 662.687 1737.38 567.676 1718.16 522.568 1735.86 L 426.562 1703.8 C 439.599 1698.24 452.9 1693.38 465.818 1687.53 A 747.153 747.153 0 0 0 577.062 1625.02 C 596.458 1611.83 614.576 1596.91 632.62 1581.95 C 760.493 1475.99 853.121 1339.19 928.4 1192.54 C 943.848 1162.45 959.201 1132.42 973.065 1101.55 A 5000.48 5000.48 0 0 0 1029.56 967.352 C 1039.06 943.28 1046.96 918.349 1057.63 894.782 z"/>
<path transform="translate(0,0)" fill="rgb(35,34,34)" d="M 955.363 1196.77 C 956.887 1207.44 951.438 1233.68 949.837 1245.98 C 946.547 1271.26 943.149 1296.52 941.261 1321.95 C 929.747 1477 934.18 1621.01 994.308 1766.91 C 1007.27 1798.38 1022.36 1831.6 1041.5 1859.77 C 1028.07 1856.54 1013.08 1853.27 1000.66 1847.15 C 991.278 1842.52 983.339 1832.88 974.677 1826.81 C 957.804 1815 938.881 1805.34 920.37 1796.36 C 857.794 1765.98 791.26 1745.35 724.124 1727.8 C 687.619 1719.56 650.613 1711.97 613.193 1709.51 C 593.636 1708.22 573.002 1708.04 553.507 1710.07 C 545.833 1710.86 537.427 1714.49 529.868 1714.27 C 517.382 1713.91 502.124 1707.07 490.548 1702.7 C 574.236 1664.79 646.336 1605.76 711.028 1541.49 C 739.467 1513.23 766.263 1484.69 791.426 1453.41 A 1318.24 1318.24 0 0 0 875.273 1334.29 C 893.855 1304.6 911.047 1274.19 928.181 1243.65 C 936.615 1228.61 944.236 1211.35 954.66 1197.66 C 954.89 1197.36 955.129 1197.07 955.363 1196.77 z"/>
<path transform="translate(0,0)" fill="rgb(254,254,254)" d="M 1159.81 108.421 C 1218.89 102.64 1281.51 117.137 1336 138.962 C 1428.14 175.863 1506.27 250.003 1544.99 341.753 C 1559.77 376.775 1567.92 414.105 1571.27 451.876 C 1574 482.702 1574 513.877 1569.45 544.541 C 1556.4 632.376 1508.65 716.714 1444.21 777.108 C 1435.06 785.689 1425.71 794.24 1415.95 802.13 C 1408.47 808.182 1372.22 832.6 1370.14 837.721 C 1371.13 840.329 1373.32 839.829 1375.87 839.655 C 1404.04 837.73 1432.01 829.412 1460.27 827.143 C 1532.69 821.327 1607.58 838.388 1671.7 872.034 C 1690.84 882.077 1708.28 894.387 1725.27 907.658 C 1785.95 955.049 1824.57 1012.27 1847.31 1085.62 A 379.271 379.271 0 0 1 1820.9 1373.86 C 1801.26 1364.42 1781.85 1357.26 1760.67 1352.25 C 1806 1281.99 1822.58 1211.41 1805.04 1128.63 C 1787.07 1043.78 1730.2 968.903 1657.9 922.249 C 1569.96 865.506 1455.71 850.203 1353.78 867.366 C 1309.93 874.749 1267.02 888.145 1223.53 897.531 C 1296.94 859.082 1352.94 835.031 1412.21 774.461 C 1483.26 701.845 1527.63 603.515 1526 500.989 A 334.109 334.109 0 0 0 1422.99 265.742 C 1381.44 227.673 1334.76 197.745 1280.6 181.094 A 335.802 335.802 0 0 0 1026.87 205.521 C 945.389 249.064 879.834 327.857 852.911 416.424 A 356.937 356.937 0 0 0 837.564 524.265 C 837.788 634.09 882.41 704.257 932.587 798.024 C 908.014 773.401 887.742 744.039 864.546 718.103 C 786.012 630.293 690.367 557.368 569.498 545.808 C 486.505 537.871 406.57 559.858 342.041 613.504 C 277.188 667.419 241.461 744.998 233.881 828.038 C 216.599 823.27 199.596 816.976 182.648 811.129 C 197.23 714.406 235.217 637.931 310.229 573.546 C 427.22 473.131 598.332 467.192 725.938 550.688 C 747.432 564.752 768.464 580.667 787.32 598.129 C 798.3 608.296 808.279 619.777 819.809 629.323 C 822.813 631.81 826.385 634.938 830.401 635.243 L 832.463 633.332 C 833.2 630.777 833.401 628.877 832.852 626.247 C 828.895 607.317 820.9 588.987 816.665 569.936 C 812.468 551.059 810.119 531.424 808.677 512.151 C 801.295 413.449 829.87 316.189 894.952 240.88 C 964.533 160.365 1053.66 116.047 1159.81 108.421 z"/>
</svg>