<svg version="1.1" xmlns="http://www.w3.org/2000/svg" style="display: block;" viewBox="0 0 2048 2048" width="100" height="100">
<path transform="translate(0,0)" d="M 0 0 L 2048 0 L 2048 2048 L 0 2048 L 0 0 z"/>
<path transform="translate(0,0)" fill="rgb(0,0,0)" d="M 1023.25 59.0017 C 1031.05 65.366 1038.28 73.7095 1045.45 80.8601 C 1063.26 98.6227 1080.77 116.754 1098.87 134.214 A 26500.8 26500.8 0 0 1 1338.52 370.933 L 1984.19 1014.83 C 1959.99 1037.2 1936.96 1061.08 1913.42 1084.17 A 15949.5 15949.5 0 0 0 1749.58 1246.3 L 1253.56 1738.57 A 20233.7 20233.7 0 0 1 1094.43 1895.94 A 4231.38 4231.38 0 0 0 1052.06 1938.96 C 1043.38 1947.86 1034.9 1957.37 1025.27 1965.25 L 1022.94 1966.8 C 1020.59 1966.26 1020.07 1965.91 1018.27 1964.24 C 996.502 1944.09 975.968 1922.39 954.841 1901.56 L 759.888 1706.35 L 229.987 1176.95 L 116.519 1063.04 C 99.7536 1046.33 83.3412 1029.11 66.0441 1012.95 C 74.742 1001.73 85.6354 991.705 95.6194 981.622 L 157.16 920.538 A 24143.2 24143.2 0 0 1 364.344 714.891 L 737.34 342.999 A 22311.6 22311.6 0 0 0 940.683 141.1 A 7517.34 7517.34 0 0 0 1023.25 59.0017 z"/>
<path transform="translate(0,0)" fill="rgb(254,254,254)" d="M 1022.93 73.8877 C 1050.06 96.383 1074.21 123.987 1099.26 148.818 L 1249.31 296.73 L 1725.14 770.86 C 1806.12 852.213 1886.62 935.663 1969.82 1014.69 L 1025.21 1951.36 L 1023.08 1952.69 C 1018.59 1951.49 1013.72 1945.95 1010.35 1942.76 C 994.277 1927.5 979.25 1911.04 963.479 1895.45 A 17157.1 17157.1 0 0 1 794.485 1726.45 L 327.693 1259.85 L 165.214 1097.69 L 110.496 1042.74 C 100.401 1032.42 89.614 1022.15 80.6086 1010.87 C 108.426 984.705 134.953 956.766 162.045 929.824 L 349.955 742.653 L 1022.93 73.8877 z"/>
<path transform="translate(0,0)" fill="rgb(138,18,28)" d="M 962.807 154.02 C 972.598 142.182 983.591 131.363 994.347 120.409 C 987.918 140.221 977.062 159.708 968.092 178.532 A 5384.74 5384.74 0 0 1 918.654 280.642 C 885.034 348.05 853.165 416.53 820.229 484.3 L 694.082 743.531 C 677.765 776.445 663.209 814.375 644.232 845.41 C 626.159 848.769 608.326 854.643 590.653 859.686 L 492.69 887.821 L 111.897 997.048 C 119.353 988.925 126.73 980.965 135.001 973.647 C 163.833 967.77 192.689 958.322 221.021 950.36 L 398.561 898.977 L 549.366 856.336 C 578.015 848.301 607.182 840.706 635.407 831.33 C 655.33 795.224 671.963 754.807 690.053 717.514 L 821.428 445.922 L 933.052 214.23 A 720.744 720.744 0 0 1 948.41 183.117 C 953.147 174.07 960.084 163.753 962.807 154.02 z"/>
<path transform="translate(0,0)" fill="rgb(138,18,28)" d="M 1431.06 1092.54 C 1444.6 1089.18 1459.48 1088.12 1473.31 1086.06 A 7808.27 7808.27 0 0 1 1553.22 1074.04 L 1842.28 1030.99 C 1879.3 1025.22 1917.73 1023.16 1954.14 1014.47 C 1947.77 1021.41 1940.72 1027.86 1934 1034.46 C 1905.78 1036.05 1877.2 1041.39 1849.21 1045.49 L 1701.75 1067.3 L 1505.43 1096.4 C 1483.06 1099.87 1459.62 1100.91 1437.6 1105.76 C 1425.26 1138.69 1409.8 1170.18 1394.62 1201.85 L 1338.65 1318.99 L 1182.54 1656.21 C 1169.24 1684.24 1084.85 1859.46 1084.18 1875.79 C 1075.72 1886.7 1063.45 1896.33 1053.22 1905.58 C 1119.48 1751.13 1192.8 1599.66 1263.08 1447.01 A 13532.6 13532.6 0 0 1 1376.87 1204.62 C 1394.74 1167.33 1411.02 1128.71 1431.06 1092.54 z"/>
<path transform="translate(0,0)" fill="rgb(138,18,28)" d="M 1057.57 125.793 C 1069 135.581 1079.62 146.332 1090.25 156.956 C 1090.01 159.559 1089.94 161.876 1090.81 164.378 C 1093.58 172.295 1097.99 180.084 1101.47 187.734 A 721.55 721.55 0 0 1 1114.46 218.922 L 1179.4 383.584 A 41917.5 41917.5 0 0 1 1376.78 886.781 L 1422.86 1008.1 C 1429.49 1025.71 1435.19 1044.07 1442.7 1061.27 C 1494.66 1051.63 1547.03 1045.69 1599.28 1038.05 L 1928.48 990.087 L 1941.03 1002.31 C 1921.84 1008.46 1900.66 1009.89 1880.73 1012.69 L 1795.51 1025.16 L 1535.78 1062.96 C 1501.8 1068.01 1467.75 1072.47 1433.86 1078.07 C 1426.82 1060.93 1421.16 1043.05 1414.49 1025.73 L 1350.27 858.768 L 1165.22 389.854 L 1104.52 235.495 C 1089.84 198.578 1075.26 161.396 1057.57 125.793 z"/>
<path transform="translate(0,0)" fill="rgb(138,18,28)" d="M 98.6008 1014.77 C 145.067 1004.65 190.94 989.487 236.765 976.642 A 18595.7 18595.7 0 0 0 471.736 909.793 C 529.968 892.852 587.936 874.882 646.723 859.94 A 23340.6 23340.6 0 0 1 892.489 1583.74 L 959.152 1784.44 A 4395.55 4395.55 0 0 1 988.711 1875.57 C 992.907 1888.85 997.675 1902.07 1001.41 1915.48 C 993.086 1908.14 983.538 1900.6 976.719 1891.83 C 975.031 1882.42 971.343 1872.67 968.543 1863.52 C 961.308 1839.85 953.28 1816.48 945.785 1792.91 L 864.521 1544.71 L 712.816 1092.54 L 668.512 964.112 C 658.582 935.311 649.14 906.173 638.085 877.786 C 587.915 889.499 538.439 905.377 488.95 919.68 L 257.491 986.01 C 224.331 995.585 191.3 1005.41 158.019 1014.6 C 142.772 1018.8 126.964 1024.26 111.347 1026.73 L 98.6008 1014.77 z"/>
<path transform="translate(0,0)" fill="rgb(196,56,55)" d="M 135.001 973.647 C 144.545 962.995 155.287 953.064 165.344 942.852 C 198.18 909.508 232.11 877.282 265.164 844.15 L 570.402 540.862 L 825.143 287.334 C 870.466 242.464 914.851 196.065 962.807 154.02 C 960.084 163.753 953.147 174.07 948.41 183.117 A 720.744 720.744 0 0 0 933.052 214.23 L 821.428 445.922 L 690.053 717.514 C 671.963 754.807 655.33 795.224 635.407 831.33 C 607.182 840.706 578.015 848.301 549.366 856.336 L 398.561 898.977 L 221.021 950.36 C 192.689 958.322 163.833 967.77 135.001 973.647 z"/>
<path transform="translate(0,0)" fill="rgb(196,56,55)" d="M 1437.6 1105.76 C 1459.62 1100.91 1483.06 1099.87 1505.43 1096.4 L 1701.75 1067.3 L 1849.21 1045.49 C 1877.2 1041.39 1905.78 1036.05 1934 1034.46 L 1307.72 1654.77 L 1154.55 1806.28 C 1131.22 1829.33 1108.51 1853.86 1084.18 1875.79 C 1084.85 1859.46 1169.24 1684.24 1182.54 1656.21 L 1338.65 1318.99 L 1394.62 1201.85 C 1409.8 1170.18 1425.26 1138.69 1437.6 1105.76 z"/>
<path transform="translate(0,0)" fill="rgb(196,56,55)" d="M 1090.25 156.956 L 1660.89 724.362 A 17799.7 17799.7 0 0 0 1854.79 917.926 C 1879.22 941.83 1902.69 967.746 1928.48 990.087 L 1599.28 1038.05 C 1547.03 1045.69 1494.66 1051.63 1442.7 1061.27 C 1435.19 1044.07 1429.49 1025.71 1422.86 1008.1 L 1376.78 886.781 A 41917.5 41917.5 0 0 0 1179.4 383.584 L 1114.46 218.922 A 721.55 721.55 0 0 0 1101.47 187.734 C 1097.99 180.084 1093.58 172.295 1090.81 164.378 C 1089.94 161.876 1090.01 159.559 1090.25 156.956 z"/>
<path transform="translate(0,0)" fill="rgb(196,56,55)" d="M 111.347 1026.73 C 126.964 1024.26 142.772 1018.8 158.019 1014.6 C 191.3 1005.41 224.331 995.585 257.491 986.01 L 488.95 919.68 C 538.439 905.377 587.915 889.499 638.085 877.786 C 649.14 906.173 658.582 935.311 668.512 964.112 L 712.816 1092.54 L 864.521 1544.71 L 945.785 1792.91 C 953.28 1816.48 961.308 1839.85 968.543 1863.52 C 971.343 1872.67 975.031 1882.42 976.719 1891.83 C 930.366 1847.44 885.399 1801.69 839.978 1756.35 A 22180.5 22180.5 0 0 1 620.25 1537.12 L 278.128 1194.41 A 13823.8 13823.8 0 0 1 111.347 1026.73 z"/>
<path transform="translate(0,0)" fill="rgb(138,18,28)" d="M 1026.21 119.83 C 1031.06 126.636 1034.51 136.373 1038.12 144.045 C 1053.4 176.453 1066.21 209.394 1079.44 242.645 L 1136.53 383.843 L 1291.58 777.306 L 1353.98 936.751 C 1371.1 981.236 1387.39 1026.29 1405.44 1070.39 L 1404.64 1070.92 C 1395.7 1068.43 1386.98 1064.7 1378.07 1061.96 L 1291.1 1034.68 L 1140.44 987.175 C 1122.89 980.486 1104.04 975.801 1086.1 970.103 A 5923.75 5923.75 0 0 0 960.071 930.781 A 27899.9 27899.9 0 0 0 674.311 842.529 L 904.573 370.13 L 987.741 197.438 C 1000.27 171.693 1011.09 144.152 1026.21 119.83 z"/>
<path transform="translate(0,0)" fill="rgb(196,56,55)" d="M 1025.62 152.757 C 1033.63 161.188 1058.43 230.21 1065.29 247.102 L 1252.82 720.671 A 19324.6 19324.6 0 0 1 1326.44 908.072 C 1344.35 953.419 1363.5 998.292 1377.92 1044.91 C 1341.95 1036.09 1307.17 1023.4 1271.92 1012.17 L 1128.71 967.543 C 1104.95 959.377 1080.54 952.545 1056.55 944.997 A 8676.03 8676.03 0 0 0 895.89 895.107 C 829.171 874.759 762.943 852.809 695.923 833.43 C 710.756 804.796 724.267 775.473 738.252 746.416 L 789.046 642.217 L 965.221 280.281 C 985.78 238.07 1003.96 194.393 1025.62 152.757 z"/>
<path transform="translate(0,0)" fill="rgb(138,18,28)" d="M 676.955 868.486 C 705.193 874.162 733.623 885.623 761.166 894.356 L 919.71 943.719 L 1233.54 1041.48 L 1345.8 1077.02 C 1363.86 1082.65 1382.31 1087.14 1400.13 1093.51 C 1392.36 1109.11 1386.06 1125.33 1378.83 1141.17 C 1367.49 1166.02 1355.58 1190.77 1343.85 1215.44 A 21796.1 21796.1 0 0 0 1143.86 1642.41 C 1128.24 1677.16 1111.66 1711.47 1095.82 1746.12 A 7607.64 7607.64 0 0 1 1024.78 1900.9 C 1002.01 1847.36 985.394 1787.25 966.996 1731.74 L 850.757 1376.15 L 737.621 1044.41 L 699.012 932.738 C 691.597 911.423 682.963 890.224 676.955 868.486 z"/>
<path transform="translate(0,0)" fill="rgb(196,56,55)" d="M 698.78 890.719 C 718.568 897.463 738.848 902.945 758.818 909.155 L 870.825 944.199 A 25084.8 25084.8 0 0 1 1142.53 1028.85 A 11935.6 11935.6 0 0 1 1377.86 1102.8 C 1356.02 1160.37 1326.07 1215.25 1299.96 1270.94 A 15882.7 15882.7 0 0 0 1137.45 1620.28 C 1130.13 1635.01 1124.03 1650.41 1117.08 1665.34 A 6757.66 6757.66 0 0 0 1065.63 1776.63 C 1052.51 1805.57 1039.93 1834.77 1026.13 1863.39 C 1019.53 1839.56 1009.41 1816.23 1001.95 1792.56 L 916.16 1528.54 A 20454.1 20454.1 0 0 0 764.259 1076.42 C 742.684 1014.4 721.728 952.257 698.78 890.719 z"/>
</svg>