<svg version="1.1" xmlns="http://www.w3.org/2000/svg" style="display: block;" viewBox="0 0 2048 2048" width="100" height="100">
<path transform="translate(0,0)" d="M 0 0 L 2048 0 L 2048 2048 L 0 2048 L 0 0 z"/>
<path transform="translate(0,0)" fill="rgb(28,18,19)" d="M 1354.65 85.4319 C 1424.71 81.9299 1490.29 102.345 1555.74 124.806 C 1577.36 132.224 1599.01 139.248 1620.47 147.153 C 1652.64 159.009 1685.62 170.224 1716.41 185.422 C 1801.18 227.269 1874.11 306.628 1917.07 390.042 C 1929.32 413.826 1939.45 440.269 1948 465.62 C 1964.42 514.28 1972.49 565.342 1975.55 616.499 C 1988.59 834.331 1884.89 1033.12 1767.79 1209.36 C 1752.58 1232.26 1736.31 1254.47 1720.74 1277.12 C 1659.18 1366.66 1595.53 1454.83 1533.34 1543.95 C 1512.42 1573.94 1490.72 1603.33 1470.64 1633.9 C 1422.21 1707.65 1376.35 1783.45 1338.82 1863.4 C 1330.12 1881.95 1321.62 1900.67 1314.82 1920.01 C 1311.72 1928.82 1308.17 1947.35 1304.24 1954.43 C 1302.52 1957.56 1300.29 1958.74 1297.03 1959.81 C 1284.4 1958.6 1243.66 1934.01 1230.67 1927.01 A 5307.38 5307.38 0 0 1 840.425 1696.31 C 559.735 1517.14 160.008 1203.52 83.3312 862.632 C 49.9315 714.143 68.9914 548.578 151.308 418.662 A 512.026 512.026 0 0 1 468.59 193.598 A 630.377 630.377 0 0 1 881.425 243.183 C 911.401 257.643 939.33 274.624 967.353 292.486 A 389.383 389.383 0 0 1 998.07 252.71 C 1086.74 152.558 1222.27 93.316 1354.65 85.4319 z"/>
<path transform="translate(0,0)" fill="rgb(254,254,254)" d="M 982.619 302.483 C 997.377 276.081 1024.2 251.702 1046.89 231.794 C 1098.83 186.216 1159.04 153.765 1223.7 130.055 C 1233.68 126.395 1248.22 119.091 1258.86 119.795 L 1257.86 120.375 C 1237.44 132.01 1214.92 140.105 1194.33 151.802 C 1130.49 188.059 1045.77 256.226 1013.52 323.911 C 1004.08 320.147 991.259 308.715 982.619 302.483 z"/>
<path transform="translate(0,0)" fill="rgb(254,254,254)" d="M 1492.05 160.768 L 1492.57 160.898 C 1489.2 162.519 1485.67 162.998 1482.2 164.251 C 1469.39 168.887 1456.26 172.529 1443.49 177.218 C 1408.86 189.933 1375.68 208.604 1344.93 228.821 A 411.979 411.979 0 0 0 1178.07 458.088 C 1172.91 475.589 1170.21 493.812 1166.51 511.663 L 1165.75 511.549 L 1162.88 505.875 C 1160.82 501.556 1157.97 497.375 1155.54 493.236 A 372.226 372.226 0 0 1 1229.03 314.558 C 1279.46 248.062 1348.46 202.462 1427.48 176.662 C 1448.27 169.875 1470.37 163.769 1492.05 160.768 z"/>
<path transform="translate(0,0)" fill="rgb(254,254,254)" d="M 629.501 288.07 L 630.288 288.234 C 628.416 290.589 623.283 291.756 620.479 293.202 C 604.771 301.301 588.988 308.355 573.764 317.489 C 549.169 332.246 525.26 350.193 503.77 369.198 A 544.059 544.059 0 0 0 318.788 746.364 C 307.366 932.199 360.225 1100.07 471.145 1248.88 C 506.191 1295.89 546.892 1339.67 585.762 1383.56 C 586.105 1385.27 585.894 1384.65 587.394 1385.98 L 586.672 1384.85 C 584.035 1384.46 577.682 1376.88 575.485 1374.73 C 468.055 1263.59 382.053 1161.42 326.936 1013.99 C 272.748 869.052 273.988 698.705 338.573 557.346 A 514.247 514.247 0 0 1 629.501 288.07 z"/>
<path transform="translate(0,0)" fill="rgb(254,254,254)" d="M 372.632 1301.47 C 358.221 1290.08 345.525 1273.98 333.206 1260.3 C 287.26 1209.27 244.333 1156.96 207.591 1098.79 C 184.604 1062.4 162.453 1024.43 144.646 985.201 C 89.502 863.721 70.2218 726.615 99.842 595.705 C 121.702 499.091 162.062 421.425 230.591 349.896 C 256.455 322.899 284.789 298.192 316.469 278.231 C 377.076 240.045 444.235 217.084 514.557 204.737 C 527.023 202.549 542.928 198.08 555.361 200.913 C 502.998 212.908 450.871 229.731 402.69 253.688 C 319.006 295.299 243.012 362.259 193.225 441.444 C 115.819 564.555 103.921 707.149 136.085 846.732 C 156.415 934.962 197.666 1030.62 242.335 1109.49 C 262.29 1144.72 284.229 1178.42 306.843 1211.99 C 321.117 1233.17 336.191 1253.56 351.57 1273.96 C 358.248 1282.82 367.15 1292 372.632 1301.47 z"/>
<path transform="translate(0,0)" fill="rgb(207,78,78)" d="M 1300.32 113.59 C 1368.64 94.2453 1440.4 109.341 1506.6 129.191 C 1523.1 134.14 1540.43 138.477 1556.18 145.43 C 1530.07 148.256 1504.32 148.292 1478.36 153.204 C 1385.46 170.779 1290.93 222.866 1231.47 296.932 C 1188.05 351.023 1157.42 415.014 1148.43 484.123 C 1114.35 423.255 1071.92 376.847 1021.22 329.943 L 1020.02 330.88 C 1019.08 330.652 1018.9 330.671 1017.95 330.078 C 1015.72 328.691 1014.24 326.355 1013.52 323.911 C 1045.77 256.226 1130.49 188.059 1194.33 151.802 C 1214.92 140.105 1237.44 132.01 1257.86 120.375 L 1258.86 119.795 C 1260.89 119.471 1262.98 118.605 1264.96 117.99 C 1274.3 115.088 1291.02 108.684 1300.32 113.59 z"/>
<path transform="translate(0,0)" fill="rgb(0,0,0)" d="M 1258.86 119.795 C 1260.89 119.471 1262.98 118.605 1264.96 117.99 C 1274.3 115.088 1291.02 108.684 1300.32 113.59 C 1288.57 118.186 1276.47 121.991 1264.92 127.034 C 1188.72 160.279 1115.75 207.362 1061.08 270.669 C 1046.34 287.731 1030.67 307.725 1021.84 328.452 L 1021.22 329.943 L 1020.02 330.88 C 1019.08 330.652 1018.9 330.671 1017.95 330.078 C 1015.72 328.691 1014.24 326.355 1013.52 323.911 C 1045.77 256.226 1130.49 188.059 1194.33 151.802 C 1214.92 140.105 1237.44 132.01 1257.86 120.375 L 1258.86 119.795 z"/>
<path transform="translate(0,0)" fill="rgb(207,78,78)" d="M 555.361 200.913 C 565.349 203.042 577.535 195.056 588.099 195.574 C 591.042 195.718 591.977 196.362 593.967 198.431 C 603.823 194.304 622.833 197.212 633.569 197.831 A 578.034 578.034 0 0 1 796.048 229.577 C 815.585 236.33 834.635 244.493 853.944 251.866 C 820.98 251.769 788.424 250.02 755.482 252.787 A 509.367 509.367 0 0 0 437.494 399.491 C 417.312 419.54 397.581 440.732 380.845 463.781 C 312.866 557.402 279.108 677.979 278.838 792.848 C 278.311 1016.69 399.17 1209.64 552.764 1363.57 C 593.354 1404.25 636.373 1442.44 679.021 1480.92 A 3779.01 3779.01 0 0 0 837.008 1618.16 C 893.44 1663.83 951.64 1707.55 1008.93 1752.15 C 1053.08 1786.53 1099.38 1818.17 1143.71 1852.37 C 1154.68 1860.83 1167.91 1868.33 1177.92 1877.63 L 1177.34 1877.94 L 1176.53 1876.39 L 1176.13 1877.42 C 1163.43 1870.48 1151.29 1862.63 1138.7 1855.5 C 1089.68 1827.71 1041.45 1799.25 993.278 1770 C 856.06 1686.69 722.517 1598.97 595.864 1500.12 C 566.46 1477.17 537.921 1453.56 509.437 1429.49 C 484.378 1408.31 459.299 1387.11 436.21 1363.75 C 414.051 1341.33 395.586 1315.8 375.538 1291.58 C 374.273 1294.42 373.745 1296.31 373.428 1299.38 C 373.292 1300.69 373.396 1300.18 372.632 1301.47 C 367.15 1292 358.248 1282.82 351.57 1273.96 C 336.191 1253.56 321.117 1233.17 306.843 1211.99 C 284.229 1178.42 262.29 1144.72 242.335 1109.49 C 197.666 1030.62 156.415 934.962 136.085 846.732 C 103.921 707.149 115.819 564.555 193.225 441.444 C 243.012 362.259 319.006 295.299 402.69 253.688 C 450.871 229.731 502.998 212.908 555.361 200.913 z"/>
<path transform="translate(0,0)" fill="rgb(0,0,0)" d="M 555.361 200.913 C 565.349 203.042 577.535 195.056 588.099 195.574 C 591.042 195.718 591.977 196.362 593.967 198.431 C 593.636 198.621 593.307 198.814 592.974 199 C 579.213 206.65 545.292 211.811 528.336 216.496 C 508.042 222.104 488.129 229.182 468.411 236.536 C 444.629 245.405 420.889 255.213 398.425 267.072 C 306.959 315.359 225.617 392.707 179.248 485.694 C 165.385 513.494 155.252 542.983 146.474 572.725 C 137.75 602.284 133.594 631.795 131.073 662.451 C 118.438 816.084 174.502 965.272 246.756 1098.23 C 266.981 1135.44 290.799 1171.24 314.447 1206.35 C 333.875 1235.2 353.557 1264.6 375.538 1291.58 C 374.273 1294.42 373.745 1296.31 373.428 1299.38 C 373.292 1300.69 373.396 1300.18 372.632 1301.47 C 367.15 1292 358.248 1282.82 351.57 1273.96 C 336.191 1253.56 321.117 1233.17 306.843 1211.99 C 284.229 1178.42 262.29 1144.72 242.335 1109.49 C 197.666 1030.62 156.415 934.962 136.085 846.732 C 103.921 707.149 115.819 564.555 193.225 441.444 C 243.012 362.259 319.006 295.299 402.69 253.688 C 450.871 229.731 502.998 212.908 555.361 200.913 z"/>
<path transform="translate(0,0)" fill="rgb(207,78,78)" d="M 1566.14 170.431 C 1593.93 168.843 1624.79 172.223 1651.25 180.44 C 1760.77 214.453 1847.39 299.821 1899.57 400.002 C 1938.19 474.137 1954.83 560.822 1955.2 643.916 C 1955.34 675.752 1954.24 707.442 1950.19 739.05 C 1934.27 863.181 1881.35 979.423 1819.37 1086.81 C 1802.87 1115.39 1786.6 1144.2 1768.58 1171.86 C 1736.98 1220.35 1702.84 1267 1669.73 1314.44 L 1540.25 1497.15 A 4945.99 4945.99 0 0 0 1442.89 1642.23 C 1383.53 1732.98 1321.66 1831.67 1288.91 1935.59 C 1251.94 1912.26 1218.04 1883.89 1182.55 1858.39 A 6889.68 6889.68 0 0 1 806.067 1567.4 C 742.633 1512.71 679.993 1457.46 621.85 1397.05 C 601.901 1376.32 583.111 1354.42 564.083 1332.85 C 545.117 1311.35 526.092 1289.84 508.342 1267.32 C 442.52 1183.78 386.934 1091.84 359.242 988.236 C 353.241 965.785 349.456 942.672 345.234 919.831 A 679.811 679.811 0 0 1 337.206 715.974 C 353.448 579.631 429.928 445.813 538.029 361.144 C 641.743 279.912 764.757 256.214 893.875 272.646 C 908.633 274.525 920.948 284.95 933.408 292.393 A 559.692 559.692 0 0 1 1117.46 466.895 A 489.02 489.02 0 0 1 1144.69 514.846 C 1150.42 526.454 1154.92 541.418 1162.78 551.499 C 1165.22 552.82 1167.46 553.268 1170.22 552.957 C 1174.27 552.502 1176.53 550.894 1178.29 547.193 C 1182.42 538.513 1181.83 526.96 1183.55 517.503 C 1186.19 502.986 1189.25 488.387 1192.96 474.102 C 1208.62 413.9 1240.5 354.253 1281.98 307.814 C 1353.16 228.111 1459.61 176.308 1566.14 170.431 z"/>
<path transform="translate(0,0)" fill="rgb(0,0,0)" d="M 443.56 853.369 C 445.119 853.647 446.312 853.804 447.672 854.683 C 448.923 855.491 448.775 856.481 448.936 857.854 C 450.01 866.992 450.198 895.942 448.723 904.681 C 448.431 906.407 447.58 907.478 446.506 908.8 C 445.315 908.093 444.292 907.206 443.212 906.344 C 438.621 895.001 439.357 864.721 443.56 853.369 z"/>
<path transform="translate(0,0)" fill="rgb(0,0,0)" d="M 1491.07 290.99 C 1491.97 290.893 1493.11 290.727 1493.99 290.847 C 1496.58 291.198 1497.38 291.788 1498.91 293.662 C 1498.7 294.365 1498.71 295.183 1498.27 295.771 C 1496.66 297.921 1486.44 301.895 1483.59 303.381 C 1472.85 308.97 1463.28 315.545 1453.76 322.992 C 1451.96 323.754 1450.99 323.914 1449.04 323.747 C 1447.18 322.075 1447.1 322.216 1446.86 319.748 C 1452.39 308.912 1479.59 295.972 1491.07 290.99 z"/>
<path transform="translate(0,0)" fill="rgb(0,0,0)" d="M 388.985 830.333 C 391.261 830.63 393.016 831.008 395.126 831.92 C 397.169 835.549 397.147 890.418 395.821 896.859 C 393.791 896.527 392.715 896.279 391.085 894.998 C 385.904 883.14 388.295 844.518 388.985 830.333 z"/>
<path transform="translate(0,0)" fill="rgb(0,0,0)" d="M 1601.47 1192.59 C 1603.36 1193.57 1604.67 1194.53 1606.21 1196 C 1607.16 1201.54 1581.07 1237.85 1576.45 1244.58 C 1574.21 1243.41 1572.92 1242.71 1571.33 1240.67 C 1571.35 1232.31 1595.04 1199.64 1601.47 1192.59 z"/>
<path transform="translate(0,0)" fill="rgb(0,0,0)" d="M 1795.85 504.427 C 1796.96 505.016 1797 504.989 1798.08 505.799 C 1808.97 513.957 1819.97 547.894 1822.27 561.172 C 1823.21 566.627 1823.49 569.008 1820.28 573.625 C 1813.62 569.396 1814.04 559.654 1812.18 552.664 C 1808.27 537.91 1796.31 521.68 1793.68 509.577 C 1793.29 507.776 1794.94 505.971 1795.85 504.427 z"/>
<path transform="translate(0,0)" fill="rgb(0,0,0)" d="M 1653.26 1218.4 C 1655.94 1220.05 1657.22 1220.35 1658.49 1223.29 C 1654.79 1234.98 1635.42 1266.77 1627.78 1277.52 C 1625 1276.4 1623.62 1276.28 1621.93 1273.75 C 1622.72 1262.76 1646.25 1229.25 1653.26 1218.4 z"/>
<path transform="translate(0,0)" fill="rgb(0,0,0)" d="M 1618.22 1218.47 C 1619 1218.65 1619.87 1218.82 1620.61 1219.14 C 1623.23 1220.29 1623.51 1220.67 1624.41 1223.2 C 1620.54 1233.46 1612.11 1244.03 1606.23 1253.37 C 1596.62 1268.6 1587.35 1283.89 1578.67 1299.68 C 1577.8 1299.4 1576.42 1299.01 1575.64 1298.59 C 1573.52 1297.47 1573.21 1297.04 1572.65 1294.78 C 1576.15 1282.7 1609.42 1227.88 1618.22 1218.47 z"/>
<path transform="translate(0,0)" fill="rgb(0,0,0)" d="M 1814.85 455.222 C 1816.04 455.567 1817.15 455.868 1818.2 456.543 C 1832.37 465.652 1851.13 518.258 1855.16 535.3 C 1856.66 541.658 1858.59 547.336 1855.01 553.193 C 1854.64 553.106 1854.25 553.064 1853.88 552.932 C 1850.12 551.574 1849.71 548.789 1848.76 545.232 C 1843.3 524.745 1838.34 506.211 1828.61 487.211 C 1824.3 478.774 1818.24 470.872 1814.33 462.331 C 1812.98 459.396 1813.84 458.046 1814.85 455.222 z"/>
<path transform="translate(0,0)" fill="rgb(0,0,0)" d="M 1494.03 243.977 C 1494.47 244.187 1494.96 244.314 1495.36 244.607 C 1497.33 246.069 1497.52 247.077 1497.68 249.295 C 1494.98 253.021 1447.24 273.692 1437.43 279.355 C 1421.65 288.471 1408.23 299.134 1394.87 311.408 C 1393.08 310.668 1392.28 309.782 1391.02 308.332 L 1391.27 305.713 C 1410.49 277.73 1463.02 256.892 1494.03 243.977 z"/>
<path transform="translate(0,0)" fill="rgb(0,0,0)" d="M 1813.75 379.35 C 1813.87 379.414 1814 379.475 1814.11 379.543 C 1835.13 391.778 1867.88 471.8 1875.03 498.414 C 1876.63 504.361 1877.59 507.587 1874.46 513.077 C 1874.01 512.881 1873.56 512.715 1873.13 512.489 C 1869.79 510.723 1869.17 507.967 1868.21 504.607 C 1859.24 473.433 1847.35 444.87 1831.87 416.373 C 1826.65 406.76 1814.42 393.508 1811.79 383.96 C 1811.29 382.145 1812.82 380.846 1813.75 379.35 z"/>
<path transform="translate(0,0)" fill="rgb(0,0,0)" d="M 967.987 498.312 C 971.239 498.576 974.039 499.303 976.816 501.101 C 979.622 502.918 981.129 504.942 981.582 508.351 C 982.337 514.03 977.515 521.297 973.929 525.258 C 967.064 532.841 959.136 536.825 948.988 537.44 C 945.95 536.885 943.562 536.27 940.885 534.679 C 937.648 532.755 934.014 530.055 933.491 526.034 C 932.921 521.647 935.755 516.538 938.361 513.238 C 945.598 504.073 956.785 499.904 967.987 498.312 z"/>
<path transform="translate(0,0)" fill="rgb(207,78,78)" d="M 960.399 507.084 C 964.448 507.043 967.545 506.688 970.969 509.086 C 971.353 510.864 971.757 511.484 971.137 513.273 C 968.938 519.622 960.738 524.688 954.987 527.331 C 953.737 527.53 952.479 527.737 951.22 527.866 C 948.046 528.193 946.342 527.796 943.89 525.783 C 943.704 524.083 943.416 523.284 944.033 521.632 C 946.724 514.43 953.86 510.178 960.399 507.084 z"/>
<path transform="translate(0,0)" fill="rgb(0,0,0)" d="M 1448.53 1516.49 C 1451.27 1517.14 1452.16 1517.91 1453.8 1520.01 C 1454.15 1527 1419.76 1576.02 1413.97 1586.46 C 1386.67 1635.73 1360.84 1685.61 1340.23 1738.12 C 1335.7 1749.64 1331.49 1761.45 1327.84 1773.28 C 1324.75 1783.28 1322.14 1804.28 1316.86 1811.51 C 1315.99 1811.26 1314.35 1810.85 1313.61 1810.38 C 1311.96 1809.36 1311.24 1807.75 1311.06 1805.9 C 1308.17 1777.11 1372.36 1643.81 1388.94 1612.86 C 1400.66 1591.01 1413.93 1569.94 1427.11 1548.94 C 1433.93 1538.08 1440.4 1526.38 1448.53 1516.49 z"/>
<path transform="translate(0,0)" fill="rgb(0,0,0)" d="M 1334.54 1343.55 C 1337.59 1344.4 1338.7 1344.49 1340.97 1346.78 C 1340.09 1355.71 1330.58 1372.66 1327.06 1382.23 A 704.478 704.478 0 0 0 1313.85 1422.5 C 1291.85 1496.73 1275.91 1572.14 1270.24 1649.48 A 951.72 951.72 0 0 0 1273.63 1821.05 C 1274.73 1831.33 1282.62 1877.64 1279.67 1884.47 L 1275.64 1882.75 C 1274.1 1881.06 1273.24 1879.71 1272.57 1877.5 C 1267.43 1860.52 1266.05 1832.74 1264.15 1814.56 A 969.318 969.318 0 0 1 1300.42 1437.23 C 1309.83 1405.12 1319.34 1373.48 1334.54 1343.55 z"/>
<path transform="translate(0,0)" fill="rgb(0,0,0)" d="M 803.541 617.706 C 806.294 617.859 807.38 618.144 809.587 619.814 C 809.787 621.18 810.261 621.814 809.383 622.996 C 805.345 628.433 797.878 633.434 792.747 637.974 A 588.109 588.109 0 0 0 771.182 658.173 A 868.817 868.817 0 0 0 667.599 780.636 C 619.137 851.163 569.713 955.298 548.282 1037.69 C 541.995 1061.86 536.518 1086.69 533.411 1111.49 C 532.299 1120.36 534.473 1131.52 532.194 1139.85 C 532.039 1140.42 531.862 1140.98 531.696 1141.54 C 529.911 1141.46 528.244 1141.2 526.482 1140.92 C 525.561 1140.08 525.403 1140.05 524.694 1138.81 C 518.847 1128.57 529.051 1082.63 531.767 1069.88 C 551.002 979.601 596.551 873.381 646.717 796.236 A 794.605 794.605 0 0 1 748.367 669.733 C 765.301 652.353 783.133 630.963 803.541 617.706 z"/>
<path transform="translate(0,0)" fill="rgb(0,0,0)" d="M 1059.13 635.719 C 1061.43 636.235 1061.73 636.58 1063.41 638.11 C 1064.35 645.107 1046.76 658.09 1041.55 662.785 C 966.649 730.3 898.227 815.106 846.98 901.946 C 798.168 984.66 760.819 1076.24 743.916 1170.91 A 654.791 654.791 0 0 0 734.044 1277.18 C 734.001 1287.95 737.947 1334.16 735.441 1338.8 C 732.946 1338.57 731.415 1338.6 729.345 1337.05 C 721.432 1319.53 726.528 1233.68 729.171 1210.44 C 749.095 1035.28 838.574 874.978 951.977 743.069 C 984.62 705.098 1019.86 666.957 1059.13 635.719 z"/>
<path transform="translate(0,0)" fill="rgb(0,0,0)" d="M 1288.36 743.702 C 1291.37 743.738 1292.13 744.352 1294.25 746.269 C 1294.22 750.88 1288.72 755.489 1285.63 758.749 C 1267.08 778.324 1249.34 797.71 1232.83 819.114 C 1160.71 912.625 1107.93 1028.22 1074.49 1141.17 A 1055.07 1055.07 0 0 0 1028.53 1459.55 A 620.571 620.571 0 0 0 1042.11 1582.72 C 1043.09 1587.24 1048.12 1604.2 1047.1 1607.99 C 1046.78 1609.2 1045.89 1610.17 1045.28 1611.27 C 1043.31 1611.13 1042.43 1610.85 1040.79 1609.75 C 1035.99 1601.86 1034.57 1590.58 1032.74 1581.54 A 705.66 705.66 0 0 1 1019.55 1436.54 A 1098.27 1098.27 0 0 1 1126.07 982.076 C 1167.3 893.895 1218.58 812.183 1288.36 743.702 z"/>
<path transform="translate(0,0)" fill="rgb(0,0,0)" d="M 1685.62 926.656 C 1687.74 927.334 1688.64 928.298 1690.35 929.711 C 1690.48 930.352 1690.79 930.984 1690.73 931.635 C 1690.7 931.931 1690.32 932.067 1690.12 932.283 C 1675.07 948.217 1660.35 964.233 1646.18 980.976 C 1577.77 1061.82 1523.55 1156.81 1475.44 1250.82 A 1851.72 1851.72 0 0 0 1340.52 1592.11 A 1114.55 1114.55 0 0 0 1310 1732.55 A 1049.41 1049.41 0 0 0 1304.19 1782.7 C 1303.41 1791.86 1303.73 1802.65 1301.82 1811.48 C 1301.47 1813.08 1300.85 1814.11 1300.05 1815.5 C 1297.71 1815.45 1296.74 1815.36 1294.86 1813.93 C 1292.68 1807.53 1294.28 1798.66 1294.85 1791.96 C 1303.38 1690.9 1326.51 1602.53 1358.54 1506.87 A 1851.17 1851.17 0 0 1 1559.39 1086.2 C 1590.65 1037.23 1641.62 963.769 1685.62 926.656 z"/>
<path transform="translate(0,0)" fill="rgb(0,0,0)" d="M 521.398 595.298 C 526.892 594.786 532.58 594.537 537.998 595.763 C 545.734 597.514 552.066 601.559 556.18 608.431 C 561.76 617.753 561.702 627.917 558.97 638.129 C 550.156 671.066 518.129 705.746 489.064 722.304 A 82.212 82.212 0 0 1 483.254 724.349 C 476.99 726.239 468.458 726.508 462.624 723.154 C 458.28 720.655 455.721 716.167 454.392 711.463 C 448.588 690.929 458.485 666.13 468.064 648.287 C 479.914 626.215 496.428 602.876 521.398 595.298 z"/>
<path transform="translate(0,0)" fill="rgb(207,78,78)" d="M 525.926 603.163 C 528.882 603.119 532.028 603.196 534.915 603.847 C 540.598 605.127 547.144 608.11 550.107 613.398 C 553.882 620.137 552.004 629.678 550.038 636.765 C 541.725 666.742 512.955 698.568 486.357 713.666 A 64.7872 64.7872 0 0 1 480.224 716.073 C 475.967 717.505 470.996 718.267 466.996 715.676 C 464.158 713.838 462.677 710.79 461.98 707.589 C 457.413 686.59 471.605 657.268 482.711 640.282 C 493.149 624.317 506.378 607.282 525.926 603.163 z"/>
<path transform="translate(0,0)" fill="rgb(0,0,0)" d="M 735.955 377.364 C 754.407 374.85 778.501 377.315 794.901 386.696 C 804.453 392.16 811.666 400.557 814.444 411.317 C 818.066 425.344 813.883 440.317 806.774 452.56 C 781.719 495.705 722.073 519.965 676.33 532.432 L 671.413 533.426 C 653.154 537.022 628.293 540.523 611.991 529.035 C 605.581 524.517 602.013 517.79 600.94 510.1 C 597.971 488.832 611.574 467.608 623.954 451.585 C 651.828 415.51 689.394 383.466 735.955 377.364 z"/>
<path transform="translate(0,0)" fill="rgb(207,78,78)" d="M 738.671 385.351 C 754.97 383.092 775.329 385.573 789.897 393.516 C 798.129 398.004 803.589 404.575 805.897 413.752 C 808.868 425.56 805.148 438.315 799.124 448.57 C 775.451 488.869 719.126 512.504 676.121 523.853 C 659.85 527.508 633.379 532.503 618.459 522.692 C 613.282 519.288 610.301 514.034 609.42 507.964 C 606.915 490.692 619.646 471.05 629.599 457.93 C 656.385 422.619 693.582 391.579 738.671 385.351 z"/>
</svg>