<svg version="1.1" xmlns="http://www.w3.org/2000/svg" style="display: block;" viewBox="0 0 2048 2048" width="100" height="100">
<path transform="translate(0,0)" d="M 0 0 L 2048 0 L 2048 2048 L 0 2048 L 0 0 z"/>
<path transform="translate(0,0)" fill="rgb(38,33,33)" d="M 1025.11 87.5314 C 1032.53 96.1131 1038.37 112.008 1043.9 122.396 A 744.102 744.102 0 0 0 1069.52 166.776 C 1101.95 218.906 1139.99 267.636 1179.78 314.309 C 1243.51 389.076 1312.22 458.878 1380.09 529.819 A 4414.43 4414.43 0 0 1 1510.34 671.092 C 1538.72 702.949 1567.09 734.707 1593.6 768.168 C 1610.86 789.946 1627.23 813.06 1643.33 835.716 C 1743.34 976.422 1827.02 1151.38 1796.67 1328.4 C 1782.26 1412.46 1740.92 1495.51 1669.86 1545.29 C 1583.28 1605.93 1465.89 1616.61 1365.49 1589.47 C 1327.42 1579.17 1290.79 1562.74 1255.89 1544.59 C 1246.34 1539.63 1236.6 1534.77 1227.46 1529.09 C 1211.74 1519.33 1188.71 1499.46 1170.44 1496.79 C 1164.55 1495.93 1158.05 1496.65 1153.25 1500.46 C 1148.29 1504.41 1146.05 1510.71 1145.27 1516.81 C 1143.86 1527.9 1146.45 1539.81 1148.46 1550.7 C 1158.15 1603.1 1180.41 1656.37 1212.79 1698.84 C 1272.56 1777.25 1372.33 1836.37 1470.02 1849.4 A 10872.2 10872.2 0 0 1 1139.64 1930.03 A 2745.4 2745.4 0 0 0 1074.98 1946.46 C 1059.71 1950.46 1042.81 1956.16 1027.03 1957.01 C 1013.3 1957.74 988.18 1948.67 974.106 1944.91 A 22900.7 22900.7 0 0 0 578.839 1843.89 C 598.379 1838.68 618.085 1834.82 637.457 1828.83 C 753.482 1792.98 858.959 1709.09 915.727 1601.13 C 926.14 1581.33 959.108 1515.64 951.497 1493.87 C 950.161 1490.05 947.625 1487.09 943.928 1485.37 C 935.325 1481.36 925.593 1484.05 917.472 1487.84 C 899.47 1496.24 884.352 1512.24 868.144 1523.78 C 840.098 1543.74 808.225 1558.07 776.155 1570.26 C 671.234 1610.16 533.665 1622.11 429.186 1574.86 A 299.934 299.934 0 0 1 270.35 1403.75 A 422.707 422.707 0 0 1 244.689 1261.79 A 477.205 477.205 0 0 1 250.168 1177.37 C 274.951 1026.57 373.99 882.252 471.378 768.227 C 500.467 734.168 531.102 701.791 561.608 669.038 C 633.972 591.344 709.173 516.119 780.24 437.253 C 864.708 343.515 946.819 243.002 1005 130.466 C 1012.25 116.452 1018.55 101.875 1025.11 87.5314 z"/>
<path transform="translate(0,0)" fill="rgb(254,254,254)" d="M 1026.07 144.524 C 1032.84 152.856 1037.98 163.651 1043.38 172.929 A 639.482 639.482 0 0 0 1064.22 206.107 C 1072.76 218.9 1082.22 231.013 1091.27 243.436 C 1113.5 273.946 1136.07 303.65 1160.89 332.146 A 5722.09 5722.09 0 0 0 1305.03 490.454 C 1341.94 529.37 1379.58 567.588 1416.06 606.935 C 1436.35 628.81 1455.93 651.383 1475.81 673.628 C 1552.4 759.344 1630.8 850.276 1685.13 952.272 C 1748.21 1070.68 1799.02 1217.75 1757.74 1351.74 C 1734.99 1425.58 1693.29 1485.85 1623.81 1522.55 C 1542.61 1565.43 1448.53 1565.4 1362.18 1538.6 A 435.426 435.426 0 0 1 1131.62 1368.34 C 1122.54 1355.2 1113.53 1342.06 1106.1 1327.89 C 1103.82 1346.87 1101.38 1365.84 1100.42 1384.94 C 1096.22 1468.66 1107.95 1556.75 1139.96 1634.51 C 1171.62 1711.4 1229 1772.27 1299.4 1815.44 C 1313.62 1824.17 1327.89 1833.14 1343.33 1839.58 C 1330.36 1843.72 1316.93 1846.15 1303.67 1849.14 C 1289.9 1852.25 1276.22 1855.8 1262.45 1858.97 C 1216.2 1869.63 1170.13 1881.24 1123.84 1891.63 C 1090.19 1899.19 1055.21 1905.28 1022.13 1914.92 C 1007.04 1910.15 991.145 1906.98 975.75 1903.34 L 817.216 1862.46 C 781.532 1853.35 744.748 1844.88 709.771 1833.45 C 769.831 1803.35 824.989 1764.34 870.269 1714.43 C 968.312 1606.35 1005.83 1462.76 998.79 1319.28 C 935.456 1421.9 842.01 1501.49 726.627 1538.82 C 631.558 1569.58 517.906 1569.34 428.162 1522.59 C 360.1 1487.14 314.371 1424.48 291.82 1352 C 280.365 1315.19 276.473 1276.43 276.845 1238.02 C 278.275 1090.64 360.924 948.206 450.527 835.978 C 496.294 778.654 546.638 725.382 596.972 672.146 A 13634 13634 0 0 0 766.644 492.096 C 864.159 385.44 958.856 273.246 1026.07 144.524 z"/>
<path transform="translate(0,0)" fill="rgb(38,33,33)" d="M 1064.59 1175.04 C 1068.02 1182.79 1070.03 1191.81 1072.92 1199.87 C 1077.83 1213.52 1087.22 1229.54 1088.87 1243.9 C 1090.15 1255.07 1087.65 1267.43 1086.64 1278.65 A 2139.75 2139.75 0 0 0 1082.95 1326.98 C 1077.96 1399.85 1076.48 1472.5 1090.12 1544.6 C 1108.32 1640.83 1153.73 1727.59 1228.39 1791.97 C 1245.32 1806.58 1263.75 1819.26 1282.21 1831.83 C 1270.9 1836.32 1258.19 1838.26 1246.33 1840.87 L 1196.5 1852.24 C 1143.27 1864.54 1090.14 1878.45 1036.67 1889.58 C 1031.82 1890.59 1026.76 1891.82 1021.78 1891.52 C 1006.5 1890.62 989.807 1884.29 974.992 1880.32 L 904.423 1861.75 C 858.587 1849.6 812.07 1839.86 766.397 1827.12 C 779.815 1817.51 794.325 1809.43 807.679 1799.64 C 845.134 1772.16 886.086 1733.59 913.792 1696.09 C 990.233 1592.63 1020.75 1475.9 1021.05 1348.48 C 1021.11 1325.45 1022.44 1300.26 1018.97 1277.55 C 1022.64 1269.59 1026.56 1261.9 1030.85 1254.25 C 1031.04 1267.32 1032.55 1280.39 1032.84 1293.47 A 1375.78 1375.78 0 0 1 1030.4 1408.46 C 1021.48 1531.77 974.902 1654.66 888.532 1744.71 C 869.696 1764.35 848.823 1782.55 827.623 1799.59 C 822.721 1803.53 800.547 1818.45 798.735 1821.99 C 801.093 1824.25 803.636 1824.31 806.778 1825.05 C 821.606 1827.96 836.249 1832.84 850.94 1836.5 L 972.155 1867.28 C 988.034 1871.27 1006.41 1878.69 1022.59 1879.52 C 1036.06 1880.21 1058.02 1871.53 1072.01 1868.33 L 1174.03 1845.3 C 1201.01 1839.08 1227.84 1832.32 1255.07 1827.27 C 1234.43 1814.46 1215.22 1797.61 1197.83 1780.69 C 1091.85 1677.62 1063.02 1530.31 1067.18 1387.63 C 1068.07 1357.33 1069.94 1326.94 1071.73 1296.69 C 1072.62 1281.52 1075.5 1263.87 1073.52 1248.89 C 1072.18 1238.77 1067.36 1228.57 1063.72 1219.06 C 1060.5 1228.7 1056.8 1238.51 1055.4 1248.62 C 1053.11 1265.1 1054.35 1283.82 1053.94 1300.56 A 3691.22 3691.22 0 0 1 1050.37 1411.51 C 1047.72 1463.32 1043.9 1515.09 1040.73 1566.88 A 11229 11229 0 0 1 1029.37 1748.95 C 1026.53 1787.4 1026.08 1826.54 1021.77 1864.79 C 995.986 1859.28 970.709 1852.04 945.118 1845.74 C 904.576 1835.77 863.898 1826.43 823.489 1815.91 C 878.45 1783.75 925.911 1727.48 959.374 1674.12 C 1028.16 1564.41 1043.51 1449.34 1042.15 1322.15 C 1041.9 1298.99 1043.42 1263.3 1038.49 1241.66 C 1046.91 1219.32 1056.4 1197.52 1064.59 1175.04 z"/>
<path transform="translate(0,0)" fill="rgb(38,33,33)" d="M 1033.25 217.503 C 1043.22 227.616 1061.56 259.493 1071.06 273.11 C 1081.26 287.72 1092.36 301.603 1103.02 315.858 C 1119.48 337.841 1135.68 360.007 1153.62 380.827 C 1229.4 468.803 1310.62 551.476 1388.82 637.211 C 1436.32 689.293 1481.39 743.276 1526.52 797.392 C 1544.44 818.869 1560.82 841.645 1577.43 864.13 C 1659.11 974.696 1740.15 1111.78 1727 1254.51 C 1720.86 1321.26 1692.69 1382.66 1640.42 1425.75 C 1589.85 1467.44 1519.66 1481.4 1455.74 1475.12 C 1371.26 1466.83 1300.21 1427.19 1246.56 1361.84 A 399.666 399.666 0 0 1 1199.61 1291.61 C 1159.99 1216.08 1120.14 1080.36 1128.86 995.056 C 1132.66 957.891 1145.92 923.46 1175.6 899.565 C 1203.79 876.867 1243.68 866.721 1279.45 870.858 C 1340.58 877.929 1386.49 911.809 1423.86 959.003 L 1423.28 957.538 C 1402.58 905.768 1362.93 860.346 1311.26 838.319 C 1267.32 819.592 1215.01 812.108 1169.66 830.741 A 112.861 112.861 0 0 0 1108.95 891.899 C 1138.61 865.858 1167.15 843.361 1207 835.405 C 1246.57 827.502 1292.15 835.622 1325.76 858.192 C 1288.09 843.357 1250.75 839.718 1210.87 848.278 C 1174.49 856.086 1142.98 876.044 1122.64 907.553 C 1085.82 964.607 1091.38 1042.12 1105.26 1105.8 C 1113.57 1145.75 1124.48 1183.71 1138.25 1222.13 C 1163.64 1293.04 1196.36 1357.39 1252.31 1409.45 C 1314.35 1467.16 1394.67 1498.41 1478.92 1502.62 C 1494.17 1503.39 1509.41 1502.66 1524.65 1502.1 C 1519.03 1503.36 1513.28 1504.17 1507.56 1504.82 C 1410.88 1515.91 1319.3 1498.54 1241.91 1436.76 A 475.959 475.959 0 0 1 1081.05 1186.36 C 1075.13 1162.75 1072.08 1138.71 1069.34 1114.57 C 1061.54 1144.48 1049.52 1174.31 1036.33 1202.25 C 985.902 1309.1 912.175 1400.71 806.333 1456.66 C 781.229 1469.93 755.004 1480.35 728.306 1489.91 C 642.44 1520.65 522.861 1535.76 437.967 1495.26 C 386.505 1470.7 357.844 1441.55 331.942 1391.53 C 325.323 1378.75 318.796 1365.65 314.025 1352.06 C 290.597 1285.3 298.239 1206.22 319.02 1139.78 C 388.389 918.008 578.481 740.732 737.804 579.758 C 774.768 542.411 810.28 503.335 846.195 464.969 A 1540.77 1540.77 0 0 0 984.416 297.046 C 1002.26 271.638 1019.82 245.572 1033.25 217.503 z"/>
<path transform="translate(0,0)" fill="rgb(254,254,254)" d="M 337.261 1312.51 C 343.97 1316.97 350.196 1324.02 356.056 1329.57 C 367.314 1340.24 378.563 1350.99 390.362 1361.07 C 403.137 1371.97 426.169 1385.57 435.912 1397.53 C 443.499 1406.84 447.504 1420.17 454.068 1430.41 C 460.54 1440.52 469.133 1449.13 475.342 1459.41 C 467.856 1457.86 460.511 1453.31 453.869 1449.61 C 395.828 1417.24 355.821 1378.15 337.261 1312.51 z"/>
<path transform="translate(0,0)" fill="rgb(254,254,254)" d="M 334.02 1202.36 C 343.929 1208.99 355.638 1225.64 363.603 1234.97 C 378.352 1252.25 392.929 1269.55 409.066 1285.56 C 411.191 1310.65 416.068 1333.24 422.12 1357.54 C 422.833 1360.41 424.082 1362.62 422.515 1365.19 A 1154.25 1154.25 0 0 1 370.014 1316.96 C 357.37 1304.65 345.084 1291.05 331.382 1279.95 A 364.607 364.607 0 0 1 334.02 1202.36 z"/>
<path transform="translate(0,0)" fill="rgb(254,254,254)" d="M 361.958 1101.66 C 368.549 1105.69 411.018 1172.73 419.695 1185.45 C 416.023 1210.71 410.304 1234.19 409.158 1259.92 L 402.586 1251.64 C 396.76 1243.89 389.434 1236.82 382.925 1229.59 C 367.158 1212.08 351.067 1194.67 336.783 1175.9 C 341.702 1162.54 345.053 1148.44 349.366 1134.85 C 352.947 1123.57 357.49 1112.61 361.958 1101.66 z"/>
<path transform="translate(0,0)" fill="rgb(254,254,254)" d="M 902.634 436.734 C 904.423 448.534 902.918 462.579 902.943 474.612 C 902.979 491.772 904.02 509.01 903.428 526.149 C 894.399 541.168 880.917 554.997 869.648 568.434 A 3794.63 3794.63 0 0 0 820.039 628.863 C 817.623 626.016 819.045 540.592 818.977 531.213 C 829.293 518.905 840.745 507.454 851.657 495.669 C 869.37 476.537 886.463 457.2 902.634 436.734 z"/>
<path transform="translate(0,0)" fill="rgb(254,254,254)" d="M 418.118 987.56 C 425.971 998.637 430.65 1013.52 436.04 1025.95 C 444.064 1044.46 452.523 1062.79 460.798 1081.19 C 446.825 1107.68 437.107 1136.34 426.523 1164.29 L 420.783 1155.34 C 404.045 1130.46 388.072 1105.29 370.873 1080.67 C 380.181 1054.29 402.485 1011.06 418.118 987.56 z"/>
<path transform="translate(0,0)" fill="rgb(254,254,254)" d="M 1030.72 272.866 L 1031.64 274.46 C 1031 341.034 1010.46 387.721 969.739 439.378 C 953.44 460.055 936.422 479.422 922.14 501.659 C 920.994 493.117 921.835 483.429 922.117 474.805 C 922.734 455.888 923.857 436.521 921.238 417.706 C 935.578 398.226 952.29 380.096 967.344 361.127 C 989.953 332.637 1010.62 303.159 1030.72 272.866 z"/>
<path transform="translate(0,0)" fill="rgb(254,254,254)" d="M 696.598 655.732 C 698.876 672.256 698.598 689.609 699.391 706.273 C 700.207 723.427 702.021 740.639 702.077 757.809 C 690.378 775.986 668.921 796.032 654.345 813.022 C 646.926 821.67 640.799 832.016 633.079 840.192 L 631.803 839.369 L 630.889 834.782 C 625.336 802.255 620.137 769.499 616.708 736.675 C 628.907 725.561 639.968 713.272 651.405 701.396 A 3694.47 3694.47 0 0 1 696.598 655.732 z"/>
<path transform="translate(0,0)" fill="rgb(254,254,254)" d="M 799.757 549.748 C 803.702 560.379 801.29 632.816 800.637 648.477 C 789.492 663.354 775.251 676.983 762.859 690.932 C 748.979 706.556 736.016 723.234 721.854 738.538 C 720.924 739.543 720.123 740.059 718.86 740.568 L 717.729 738.803 C 716.897 728.093 717.103 717.244 716.707 706.504 A 758.35 758.35 0 0 0 711.864 640.818 A 5014.72 5014.72 0 0 0 799.757 549.748 z"/>
<path transform="translate(0,0)" fill="rgb(254,254,254)" d="M 497.498 871.589 C 500.569 874.392 522.606 960.269 526.234 972.815 C 515.032 989.246 503.698 1005.59 493.391 1022.61 C 485.401 1035.8 478.264 1049.46 470.563 1062.81 C 468.645 1061.2 467.928 1057.64 467.032 1055.27 C 455.845 1026.02 442.121 997.789 430.981 968.557 C 450.104 934.855 474.543 902.792 497.498 871.589 z"/>
<path transform="translate(0,0)" fill="rgb(254,254,254)" d="M 599.765 754.891 C 604.828 761.387 614.392 844.783 615.927 858.976 C 602.316 876.024 587.826 892.39 574.39 909.579 C 562.385 924.935 551.425 941.041 539.765 956.638 C 537.698 955.28 537.455 951.627 536.806 949.236 C 534.665 937.386 530.875 925.453 528.064 913.709 C 523.303 893.812 519.555 874.326 512.637 855 C 518.438 847.007 525.306 839.484 531.627 831.885 C 553.601 805.469 577.008 780.604 599.765 754.891 z"/>
<path transform="translate(0,0)" fill="rgb(254,254,254)" d="M 1412.4 1007.73 C 1415.48 1010.94 1417.6 1018.61 1419.33 1022.83 C 1427.78 1043.51 1441.25 1061.63 1455.37 1078.82 C 1483.37 1112.9 1515.26 1143.85 1548.38 1172.91 C 1559.33 1182.52 1570.87 1191.43 1581.79 1201.07 C 1592.44 1210.46 1602.48 1220.58 1612.98 1230.15 C 1584.02 1229.75 1554.75 1228.79 1526.02 1233.2 C 1474.3 1241.14 1442.39 1267.4 1412.36 1308.52 C 1408.63 1313.82 1405.75 1319.61 1402.75 1325.33 A 927.556 927.556 0 0 0 1397.33 1311.64 A 307.972 307.972 0 0 0 1229.03 1140.7 C 1273.15 1131.64 1315.28 1119.09 1353.03 1093.59 C 1384.43 1072.38 1405.24 1045.11 1412.4 1007.73 z"/>
<path transform="translate(0,0)" fill="rgb(38,33,33)" d="M 1409.7 1038.73 C 1416.3 1045.22 1420.85 1058.78 1425.59 1067.02 C 1428.11 1071.39 1431.26 1075.38 1434.34 1079.35 C 1458.17 1110.11 1485.84 1137.43 1513.68 1164.49 C 1527.64 1178.05 1541.36 1192.32 1556.99 1203.96 C 1538.14 1206.62 1520.1 1209.49 1502.07 1215.9 C 1468.06 1227.98 1421.97 1256.19 1405.91 1289.94 C 1395.31 1246.26 1338.51 1191.29 1303.38 1162.49 C 1298 1157.94 1283.45 1149.38 1280.58 1144.26 C 1281.1 1144.38 1281.64 1144.44 1282.13 1144.64 C 1286.9 1146.61 1292.03 1150.51 1296.65 1153.03 C 1332.77 1172.75 1369.71 1204.37 1393.13 1238.5 C 1399.34 1247.56 1404.15 1257.19 1408.98 1267.02 C 1414.24 1260.38 1419.76 1254.19 1425.9 1248.34 C 1455.05 1220.51 1498.6 1197.05 1539.77 1197.94 C 1527.43 1186.02 1513.98 1175.38 1501.34 1163.8 C 1464.43 1130 1425.04 1087.19 1409.7 1038.73 z"/>
<path transform="translate(0,0)" fill="rgb(254,254,254)" d="M 1068.33 345.602 C 1072.18 356.192 1074.83 393.942 1077.04 408.5 A 1542.17 1542.17 0 0 1 1081.53 858.539 C 1078.57 879.947 1076.46 901.65 1072.21 922.842 C 1058.71 875.331 1034.46 836.283 991.12 810.851 C 946.877 784.886 887.713 776.301 837.949 789.389 C 875.039 791.793 896.847 796.762 931.993 807.736 C 919.748 808.219 907.51 807.922 895.266 808.774 C 856.008 811.507 817.357 822.656 784.612 844.887 C 738.649 876.092 709.109 923.735 698.691 977.93 C 703.242 970.162 706.063 961.349 709.692 953.116 C 732.53 901.313 779.512 864.509 831.575 845.001 C 875.947 828.376 932.49 823.868 976.446 844.133 C 1010.11 859.655 1031.65 885.467 1044.29 920.007 C 1069.91 990.053 1035.85 1082.36 1008.84 1148.3 C 1001.78 1165.53 994.874 1182.86 986.982 1199.72 C 972.829 1230.23 957.881 1261.17 939.598 1289.47 C 903.182 1345.83 859.829 1393.28 801.955 1427.91 C 778.143 1442.15 753.095 1453.55 725.753 1459.29 C 676.802 1469.56 620.168 1460.63 578.353 1432.8 C 538.354 1406.18 514.88 1366.06 505.657 1319.36 C 496.499 1272.99 500.839 1225.04 510.905 1179.22 C 542.429 1035.73 631.637 911.587 723.706 800.402 C 738.566 782.457 754.168 765.126 769.208 747.328 C 808.326 701.034 847.319 654.197 884.964 606.706 C 910.611 574.349 936.743 541.41 960.487 507.669 C 997.789 454.662 1032.02 399.341 1068.33 345.602 z"/>
<path transform="translate(0,0)" fill="rgb(38,33,33)" d="M 778.347 962.698 C 779.416 964.584 779.179 963.844 779.641 965.763 C 784.587 986.311 793.608 1009.05 805.217 1026.83 C 834.181 1071.17 886.733 1103.25 937.104 1117.43 C 951.947 1121.6 967.066 1123.24 982.099 1126.41 C 968.479 1135.31 952.573 1140.84 938.228 1148.55 C 867.103 1186.78 827.875 1217.23 790.422 1291.17 L 785.086 1283.2 C 747.585 1225.6 694.577 1195.56 628.869 1180.36 C 610.111 1176.02 590.176 1174.27 571.866 1168.46 L 570.457 1168.01 C 579.816 1162.61 590.457 1158.66 600.215 1153.93 C 615.08 1146.72 629.742 1138.44 643.788 1129.76 C 705.278 1091.72 761.226 1034.79 778.347 962.698 z"/>
<path transform="translate(0,0)" fill="rgb(254,254,254)" d="M 777.077 1021.52 C 785.136 1030.24 792.986 1047.33 800.373 1057.83 C 824.509 1092.13 879.28 1125.72 920.708 1132.95 C 910.739 1139.58 899.351 1144.5 889.154 1150.93 C 850.029 1175.61 812.309 1208.48 788.852 1248.63 L 783.351 1242.86 C 751.04 1209.2 710.681 1182 665.54 1168.98 C 654.51 1165.8 642.973 1164.17 631.725 1161.89 C 674.761 1138.11 722.584 1102.3 752.265 1062.98 C 762.089 1049.97 769.655 1035.97 777.077 1021.52 z"/>
<path transform="translate(0,0)" fill="rgb(38,33,33)" d="M 777.507 1042.96 C 785.428 1051.68 790.348 1064.2 798.024 1073.51 C 819.827 1099.94 862.243 1126.29 894.622 1136.17 C 870.491 1148.01 847.51 1165.96 827.882 1184.18 C 813.301 1197.71 802.412 1212.94 789.158 1227.46 C 788.202 1228.5 787.236 1229.07 785.946 1229.62 L 784.235 1228.38 C 763.345 1205.46 733.211 1185.28 705.159 1172.38 C 691.778 1166.22 677.767 1161.4 664.028 1156.12 C 671.355 1150.44 679.249 1145.43 686.64 1139.8 C 712.616 1120.02 740.548 1096.55 760.161 1070.34 C 766.653 1061.67 771.893 1052.2 777.507 1042.96 z"/>
</svg>